<mxfile host="app.diagrams.net" modified="2024-02-07T14:03:41.768Z" agent="Mozilla/5.0 (Windows NT 10.0; Win64; x64) AppleWebKit/537.36 (KHTML, like Gecko) Chrome/121.0.0.0 Safari/537.36" etag="vNXljVb8-rEdbgXI_f1K" version="23.0.2" type="github">
  <diagram name="Pagina-1" id="ZtDWFs8vRNodkU7NK99P">
    <mxGraphModel dx="2448" dy="1581" grid="1" gridSize="10" guides="1" tooltips="1" connect="1" arrows="1" fold="1" page="1" pageScale="1" pageWidth="827" pageHeight="1169" math="0" shadow="0">
      <root>
        <mxCell id="0" />
        <mxCell id="1" parent="0" />
        <mxCell id="o72glYHgqPc7JBYB_R62-38" value="«Subsystem»&lt;br&gt;&lt;b&gt;DB server&lt;/b&gt;" style="html=1;dropTarget=0;whiteSpace=wrap;verticalAlign=top;" vertex="1" parent="1">
          <mxGeometry x="330" y="-29" width="260" height="339" as="geometry" />
        </mxCell>
        <mxCell id="o72glYHgqPc7JBYB_R62-39" value="" style="shape=module;jettyWidth=8;jettyHeight=4;" vertex="1" parent="o72glYHgqPc7JBYB_R62-38">
          <mxGeometry x="1" width="20" height="20" relative="1" as="geometry">
            <mxPoint x="-27" y="7" as="offset" />
          </mxGeometry>
        </mxCell>
        <mxCell id="o72glYHgqPc7JBYB_R62-35" value="«Subsystem»&lt;br&gt;&lt;b&gt;Application Server&lt;/b&gt;" style="html=1;dropTarget=0;whiteSpace=wrap;verticalAlign=top;" vertex="1" parent="1">
          <mxGeometry x="-303" y="-29" width="535" height="342" as="geometry" />
        </mxCell>
        <mxCell id="o72glYHgqPc7JBYB_R62-36" value="" style="shape=module;jettyWidth=8;jettyHeight=4;" vertex="1" parent="o72glYHgqPc7JBYB_R62-35">
          <mxGeometry x="1" width="20" height="20" relative="1" as="geometry">
            <mxPoint x="-27" y="7" as="offset" />
          </mxGeometry>
        </mxCell>
        <mxCell id="o72glYHgqPc7JBYB_R62-1" value="«Subsystem»&lt;br&gt;&lt;b&gt;Client Application&lt;/b&gt;" style="html=1;dropTarget=0;whiteSpace=wrap;verticalAlign=top;" vertex="1" parent="1">
          <mxGeometry x="-785" y="-32" width="300" height="410" as="geometry" />
        </mxCell>
        <mxCell id="o72glYHgqPc7JBYB_R62-2" value="" style="shape=module;jettyWidth=8;jettyHeight=4;" vertex="1" parent="o72glYHgqPc7JBYB_R62-1">
          <mxGeometry x="1" width="20" height="20" relative="1" as="geometry">
            <mxPoint x="-27" y="7" as="offset" />
          </mxGeometry>
        </mxCell>
        <mxCell id="5seyrMzP3nXMBWjV6_gZ-1" value="«Data»&lt;br style=&quot;border-color: var(--border-color);&quot;&gt;&lt;b&gt;PostgreSQL DB&lt;/b&gt;" style="html=1;dropTarget=0;whiteSpace=wrap;" parent="1" vertex="1">
          <mxGeometry x="380" y="35" width="180" height="190" as="geometry" />
        </mxCell>
        <mxCell id="5seyrMzP3nXMBWjV6_gZ-2" value="" style="shape=module;jettyWidth=8;jettyHeight=4;" parent="5seyrMzP3nXMBWjV6_gZ-1" vertex="1">
          <mxGeometry x="1" width="20" height="20" relative="1" as="geometry">
            <mxPoint x="-27" y="7" as="offset" />
          </mxGeometry>
        </mxCell>
        <mxCell id="5seyrMzP3nXMBWjV6_gZ-16" value="" style="ellipse;whiteSpace=wrap;html=1;align=center;aspect=fixed;fillColor=none;strokeColor=none;resizable=0;perimeter=centerPerimeter;rotatable=0;allowArrows=0;points=[];outlineConnect=1;" parent="1" vertex="1">
          <mxGeometry x="125" y="190" width="10" height="10" as="geometry" />
        </mxCell>
        <mxCell id="5seyrMzP3nXMBWjV6_gZ-22" value="" style="ellipse;whiteSpace=wrap;html=1;align=center;aspect=fixed;fillColor=none;strokeColor=none;resizable=0;perimeter=centerPerimeter;rotatable=0;allowArrows=0;points=[];outlineConnect=1;" parent="1" vertex="1">
          <mxGeometry x="520" y="90" width="10" height="10" as="geometry" />
        </mxCell>
        <mxCell id="5seyrMzP3nXMBWjV6_gZ-24" value="«Control»&lt;br style=&quot;border-color: var(--border-color);&quot;&gt;&lt;b&gt;UserManagement&lt;/b&gt;" style="html=1;dropTarget=0;whiteSpace=wrap;" parent="1" vertex="1">
          <mxGeometry x="-260" y="20" width="180" height="90" as="geometry" />
        </mxCell>
        <mxCell id="5seyrMzP3nXMBWjV6_gZ-25" value="" style="shape=module;jettyWidth=8;jettyHeight=4;" parent="5seyrMzP3nXMBWjV6_gZ-24" vertex="1">
          <mxGeometry x="1" width="20" height="20" relative="1" as="geometry">
            <mxPoint x="-27" y="7" as="offset" />
          </mxGeometry>
        </mxCell>
        <mxCell id="5seyrMzP3nXMBWjV6_gZ-26" value="«Control»&lt;br style=&quot;border-color: var(--border-color);&quot;&gt;&lt;b&gt;EventManagement&lt;/b&gt;" style="html=1;dropTarget=0;whiteSpace=wrap;" parent="1" vertex="1">
          <mxGeometry x="-55" y="147" width="180" height="90" as="geometry" />
        </mxCell>
        <mxCell id="5seyrMzP3nXMBWjV6_gZ-27" value="" style="shape=module;jettyWidth=8;jettyHeight=4;" parent="5seyrMzP3nXMBWjV6_gZ-26" vertex="1">
          <mxGeometry x="1" width="20" height="20" relative="1" as="geometry">
            <mxPoint x="-27" y="7" as="offset" />
          </mxGeometry>
        </mxCell>
        <mxCell id="5seyrMzP3nXMBWjV6_gZ-40" value="" style="ellipse;whiteSpace=wrap;html=1;align=center;aspect=fixed;fillColor=none;strokeColor=none;resizable=0;perimeter=centerPerimeter;rotatable=0;allowArrows=0;points=[];outlineConnect=1;" parent="1" vertex="1">
          <mxGeometry x="165" y="180" width="10" height="10" as="geometry" />
        </mxCell>
        <mxCell id="5seyrMzP3nXMBWjV6_gZ-41" value="PostgreDBIF" style="edgeLabel;html=1;align=center;verticalAlign=middle;resizable=0;points=[];" parent="1" vertex="1" connectable="0">
          <mxGeometry x="270" y="120" as="geometry">
            <mxPoint x="9" y="-8" as="offset" />
          </mxGeometry>
        </mxCell>
        <mxCell id="5seyrMzP3nXMBWjV6_gZ-46" value="" style="ellipse;whiteSpace=wrap;html=1;align=center;aspect=fixed;fillColor=none;strokeColor=none;resizable=0;perimeter=centerPerimeter;rotatable=0;allowArrows=0;points=[];outlineConnect=1;" parent="1" vertex="1">
          <mxGeometry x="-5" y="60" width="10" height="10" as="geometry" />
        </mxCell>
        <mxCell id="5seyrMzP3nXMBWjV6_gZ-60" value="" style="ellipse;whiteSpace=wrap;html=1;align=center;aspect=fixed;fillColor=none;strokeColor=none;resizable=0;perimeter=centerPerimeter;rotatable=0;allowArrows=0;points=[];outlineConnect=1;" parent="1" vertex="1">
          <mxGeometry x="25" y="358" width="10" height="10" as="geometry" />
        </mxCell>
        <mxCell id="5seyrMzP3nXMBWjV6_gZ-64" value="" style="ellipse;whiteSpace=wrap;html=1;align=center;aspect=fixed;fillColor=none;strokeColor=none;resizable=0;perimeter=centerPerimeter;rotatable=0;allowArrows=0;points=[];outlineConnect=1;" parent="1" vertex="1">
          <mxGeometry x="-175" y="358" width="10" height="10" as="geometry" />
        </mxCell>
        <mxCell id="5seyrMzP3nXMBWjV6_gZ-69" value="" style="ellipse;whiteSpace=wrap;html=1;align=center;aspect=fixed;fillColor=none;strokeColor=none;resizable=0;perimeter=centerPerimeter;rotatable=0;allowArrows=0;points=[];outlineConnect=1;" parent="1" vertex="1">
          <mxGeometry x="55" y="280" width="10" height="10" as="geometry" />
        </mxCell>
        <mxCell id="5seyrMzP3nXMBWjV6_gZ-73" value="" style="ellipse;whiteSpace=wrap;html=1;align=center;aspect=fixed;fillColor=none;strokeColor=none;resizable=0;perimeter=centerPerimeter;rotatable=0;allowArrows=0;points=[];outlineConnect=1;" parent="1" vertex="1">
          <mxGeometry x="55" y="280" width="10" height="10" as="geometry" />
        </mxCell>
        <mxCell id="5seyrMzP3nXMBWjV6_gZ-74" value="Auth.Request" style="text;html=1;align=center;verticalAlign=middle;resizable=0;points=[];autosize=1;strokeColor=none;fillColor=none;fontSize=11;" parent="1" vertex="1">
          <mxGeometry x="-170" y="340" width="90" height="30" as="geometry" />
        </mxCell>
        <mxCell id="5seyrMzP3nXMBWjV6_gZ-77" value="«Control»&lt;br style=&quot;border-color: var(--border-color);&quot;&gt;&lt;b&gt;ClientBL&lt;/b&gt;" style="html=1;dropTarget=0;whiteSpace=wrap;" parent="1" vertex="1">
          <mxGeometry x="-725" y="20" width="180" height="90" as="geometry" />
        </mxCell>
        <mxCell id="5seyrMzP3nXMBWjV6_gZ-78" value="" style="shape=module;jettyWidth=8;jettyHeight=4;" parent="5seyrMzP3nXMBWjV6_gZ-77" vertex="1">
          <mxGeometry x="1" width="20" height="20" relative="1" as="geometry">
            <mxPoint x="-27" y="7" as="offset" />
          </mxGeometry>
        </mxCell>
        <mxCell id="5seyrMzP3nXMBWjV6_gZ-79" value="«Boundary»&lt;br style=&quot;border-color: var(--border-color);&quot;&gt;&lt;b&gt;ClientGUI&lt;/b&gt;" style="html=1;dropTarget=0;whiteSpace=wrap;" parent="1" vertex="1">
          <mxGeometry x="-725" y="240" width="180" height="90" as="geometry" />
        </mxCell>
        <mxCell id="5seyrMzP3nXMBWjV6_gZ-80" value="" style="shape=module;jettyWidth=8;jettyHeight=4;" parent="5seyrMzP3nXMBWjV6_gZ-79" vertex="1">
          <mxGeometry x="1" width="20" height="20" relative="1" as="geometry">
            <mxPoint x="-27" y="7" as="offset" />
          </mxGeometry>
        </mxCell>
        <mxCell id="5seyrMzP3nXMBWjV6_gZ-81" value="" style="rounded=0;orthogonalLoop=1;jettySize=auto;html=1;endArrow=halfCircle;endFill=0;endSize=6;strokeWidth=1;sketch=0;exitX=1;exitY=0.5;exitDx=0;exitDy=0;" parent="1" source="o72glYHgqPc7JBYB_R62-9" edge="1">
          <mxGeometry relative="1" as="geometry">
            <mxPoint x="-440" y="20" as="sourcePoint" />
            <mxPoint x="-380" y="66" as="targetPoint" />
          </mxGeometry>
        </mxCell>
        <mxCell id="5seyrMzP3nXMBWjV6_gZ-85" value="" style="rounded=0;orthogonalLoop=1;jettySize=auto;html=1;endArrow=halfCircle;endFill=0;endSize=6;strokeWidth=1;sketch=0;exitX=1;exitY=0.5;exitDx=0;exitDy=0;" parent="1" source="o72glYHgqPc7JBYB_R62-9" edge="1">
          <mxGeometry relative="1" as="geometry">
            <mxPoint x="-430" y="90" as="sourcePoint" />
            <mxPoint x="-370" y="190" as="targetPoint" />
          </mxGeometry>
        </mxCell>
        <mxCell id="5seyrMzP3nXMBWjV6_gZ-86" value="" style="rounded=0;orthogonalLoop=1;jettySize=auto;html=1;endArrow=oval;endFill=0;sketch=0;sourcePerimeterSpacing=0;targetPerimeterSpacing=0;endSize=10;exitX=0;exitY=0.5;exitDx=0;exitDy=0;" parent="1" source="5seyrMzP3nXMBWjV6_gZ-26" edge="1">
          <mxGeometry relative="1" as="geometry">
            <mxPoint x="-420" y="95" as="sourcePoint" />
            <mxPoint x="-370" y="190" as="targetPoint" />
          </mxGeometry>
        </mxCell>
        <mxCell id="5seyrMzP3nXMBWjV6_gZ-87" value="" style="ellipse;whiteSpace=wrap;html=1;align=center;aspect=fixed;fillColor=none;strokeColor=none;resizable=0;perimeter=centerPerimeter;rotatable=0;allowArrows=0;points=[];outlineConnect=1;" parent="1" vertex="1">
          <mxGeometry x="-405" y="90" width="10" height="10" as="geometry" />
        </mxCell>
        <mxCell id="5seyrMzP3nXMBWjV6_gZ-88" value="EventManagementIF" style="text;html=1;align=center;verticalAlign=middle;resizable=0;points=[];autosize=1;strokeColor=none;fillColor=none;fontSize=11;" parent="1" vertex="1">
          <mxGeometry x="-433" y="190" width="130" height="30" as="geometry" />
        </mxCell>
        <mxCell id="zFvqHr5xl_vMfdKAqCoj-5" value="" style="rounded=0;orthogonalLoop=1;jettySize=auto;html=1;endArrow=halfCircle;endFill=0;endSize=6;strokeWidth=1;sketch=0;exitX=1;exitY=0.5;exitDx=0;exitDy=0;" parent="1" source="o72glYHgqPc7JBYB_R62-37" target="zFvqHr5xl_vMfdKAqCoj-7" edge="1">
          <mxGeometry relative="1" as="geometry">
            <mxPoint x="280" y="125" as="sourcePoint" />
          </mxGeometry>
        </mxCell>
        <mxCell id="zFvqHr5xl_vMfdKAqCoj-9" value="" style="rounded=0;orthogonalLoop=1;jettySize=auto;html=1;endArrow=oval;endFill=0;sketch=0;sourcePerimeterSpacing=0;targetPerimeterSpacing=0;endSize=10;exitX=0;exitY=0.5;exitDx=0;exitDy=0;entryX=0.867;entryY=0.667;entryDx=0;entryDy=0;entryPerimeter=0;" parent="1" source="5seyrMzP3nXMBWjV6_gZ-1" target="zFvqHr5xl_vMfdKAqCoj-7" edge="1">
          <mxGeometry relative="1" as="geometry">
            <mxPoint x="580" y="98" as="sourcePoint" />
            <mxPoint x="200" y="95" as="targetPoint" />
            <Array as="points">
              <mxPoint x="290" y="130" />
            </Array>
          </mxGeometry>
        </mxCell>
        <mxCell id="zFvqHr5xl_vMfdKAqCoj-7" value="" style="ellipse;whiteSpace=wrap;html=1;align=center;aspect=fixed;fillColor=none;strokeColor=none;resizable=0;perimeter=centerPerimeter;rotatable=0;allowArrows=0;points=[];outlineConnect=1;" parent="1" vertex="1">
          <mxGeometry x="270" y="125" width="10" height="10" as="geometry" />
        </mxCell>
        <mxCell id="KeYxlR6JVcF8Aqz_7-zb-5" value="«Service»&lt;br&gt;&lt;b&gt;WheaterServer&lt;/b&gt;" style="html=1;dropTarget=0;whiteSpace=wrap;" parent="1" vertex="1">
          <mxGeometry x="-55" y="400" width="180" height="90" as="geometry" />
        </mxCell>
        <mxCell id="KeYxlR6JVcF8Aqz_7-zb-6" value="" style="shape=module;jettyWidth=8;jettyHeight=4;" parent="KeYxlR6JVcF8Aqz_7-zb-5" vertex="1">
          <mxGeometry x="1" width="20" height="20" relative="1" as="geometry">
            <mxPoint x="-27" y="7" as="offset" />
          </mxGeometry>
        </mxCell>
        <mxCell id="KeYxlR6JVcF8Aqz_7-zb-7" value="«Service»&lt;br&gt;&lt;b&gt;AuthenticationServer&lt;/b&gt;" style="html=1;dropTarget=0;whiteSpace=wrap;" parent="1" vertex="1">
          <mxGeometry x="-260" y="400" width="180" height="90" as="geometry" />
        </mxCell>
        <mxCell id="KeYxlR6JVcF8Aqz_7-zb-8" value="" style="shape=module;jettyWidth=8;jettyHeight=4;" parent="KeYxlR6JVcF8Aqz_7-zb-7" vertex="1">
          <mxGeometry x="1" width="20" height="20" relative="1" as="geometry">
            <mxPoint x="-27" y="7" as="offset" />
          </mxGeometry>
        </mxCell>
        <mxCell id="o72glYHgqPc7JBYB_R62-6" value="" style="rounded=0;orthogonalLoop=1;jettySize=auto;html=1;endArrow=halfCircle;endFill=0;endSize=6;strokeWidth=1;sketch=0;entryX=-0.167;entryY=0.967;entryDx=0;entryDy=0;entryPerimeter=0;" edge="1" target="o72glYHgqPc7JBYB_R62-8" parent="1">
          <mxGeometry relative="1" as="geometry">
            <mxPoint x="-635" y="240" as="sourcePoint" />
            <mxPoint x="-660.5" y="165" as="targetPoint" />
          </mxGeometry>
        </mxCell>
        <mxCell id="o72glYHgqPc7JBYB_R62-7" value="" style="rounded=0;orthogonalLoop=1;jettySize=auto;html=1;endArrow=oval;endFill=0;sketch=0;sourcePerimeterSpacing=0;targetPerimeterSpacing=0;endSize=10;exitX=0.5;exitY=1;exitDx=0;exitDy=0;" edge="1" target="o72glYHgqPc7JBYB_R62-8" parent="1" source="5seyrMzP3nXMBWjV6_gZ-77">
          <mxGeometry relative="1" as="geometry">
            <mxPoint x="-500" y="165" as="sourcePoint" />
          </mxGeometry>
        </mxCell>
        <mxCell id="o72glYHgqPc7JBYB_R62-8" value="ClientShowIF" style="ellipse;whiteSpace=wrap;html=1;align=left;aspect=fixed;fillColor=none;strokeColor=none;resizable=0;perimeter=centerPerimeter;rotatable=0;allowArrows=0;points=[];outlineConnect=1;labelPosition=right;verticalLabelPosition=middle;verticalAlign=middle;" vertex="1" parent="1">
          <mxGeometry x="-640" y="160" width="10" height="10" as="geometry" />
        </mxCell>
        <mxCell id="o72glYHgqPc7JBYB_R62-12" value="" style="endArrow=none;html=1;rounded=0;exitX=1;exitY=0.5;exitDx=0;exitDy=0;entryX=0;entryY=0.5;entryDx=0;entryDy=0;" edge="1" parent="1" source="5seyrMzP3nXMBWjV6_gZ-77" target="o72glYHgqPc7JBYB_R62-9">
          <mxGeometry width="50" height="50" relative="1" as="geometry">
            <mxPoint x="-565" y="65" as="sourcePoint" />
            <mxPoint x="-450" y="150" as="targetPoint" />
          </mxGeometry>
        </mxCell>
        <mxCell id="o72glYHgqPc7JBYB_R62-9" value="" style="whiteSpace=wrap;html=1;aspect=fixed;" vertex="1" parent="1">
          <mxGeometry x="-495" y="55" width="20" height="20" as="geometry" />
        </mxCell>
        <mxCell id="o72glYHgqPc7JBYB_R62-18" value="" style="rounded=0;orthogonalLoop=1;jettySize=auto;html=1;endArrow=oval;endFill=0;sketch=0;sourcePerimeterSpacing=0;targetPerimeterSpacing=0;endSize=10;exitX=0;exitY=0.5;exitDx=0;exitDy=0;" edge="1" parent="1" source="5seyrMzP3nXMBWjV6_gZ-24">
          <mxGeometry relative="1" as="geometry">
            <mxPoint x="-260" y="65" as="sourcePoint" />
            <mxPoint x="-380" y="65" as="targetPoint" />
          </mxGeometry>
        </mxCell>
        <mxCell id="o72glYHgqPc7JBYB_R62-19" value="UserManagementIF" style="edgeLabel;html=1;align=center;verticalAlign=middle;resizable=0;points=[];" vertex="1" connectable="0" parent="o72glYHgqPc7JBYB_R62-18">
          <mxGeometry x="0.9333" y="11" relative="1" as="geometry">
            <mxPoint y="-26" as="offset" />
          </mxGeometry>
        </mxCell>
        <mxCell id="5seyrMzP3nXMBWjV6_gZ-30" value="" style="ellipse;whiteSpace=wrap;html=1;align=center;aspect=fixed;fillColor=none;strokeColor=none;resizable=0;perimeter=centerPerimeter;rotatable=0;allowArrows=0;points=[];outlineConnect=1;" parent="1" vertex="1">
          <mxGeometry x="150" y="190" width="10" height="10" as="geometry" />
        </mxCell>
        <mxCell id="o72glYHgqPc7JBYB_R62-37" value="" style="whiteSpace=wrap;html=1;aspect=fixed;" vertex="1" parent="1">
          <mxGeometry x="220" y="120" width="20" height="20" as="geometry" />
        </mxCell>
        <mxCell id="o72glYHgqPc7JBYB_R62-40" value="component" style="shape=umlFrame;whiteSpace=wrap;html=1;pointerEvents=0;" vertex="1" parent="1">
          <mxGeometry x="-860" y="-90" width="1480" height="650" as="geometry" />
        </mxCell>
        <mxCell id="o72glYHgqPc7JBYB_R62-41" value="" style="rounded=0;orthogonalLoop=1;jettySize=auto;html=1;endArrow=halfCircle;endFill=0;endSize=6;strokeWidth=1;sketch=0;exitX=0.5;exitY=1;exitDx=0;exitDy=0;" edge="1" parent="1" source="5seyrMzP3nXMBWjV6_gZ-24">
          <mxGeometry relative="1" as="geometry">
            <mxPoint x="-100" y="345" as="sourcePoint" />
            <mxPoint x="-170" y="350" as="targetPoint" />
          </mxGeometry>
        </mxCell>
        <mxCell id="o72glYHgqPc7JBYB_R62-42" value="" style="rounded=0;orthogonalLoop=1;jettySize=auto;html=1;endArrow=oval;endFill=0;sketch=0;sourcePerimeterSpacing=0;targetPerimeterSpacing=0;endSize=10;exitX=0.5;exitY=0;exitDx=0;exitDy=0;" edge="1" parent="1" source="KeYxlR6JVcF8Aqz_7-zb-7">
          <mxGeometry relative="1" as="geometry">
            <mxPoint x="-140" y="345" as="sourcePoint" />
            <mxPoint x="-170" y="350" as="targetPoint" />
          </mxGeometry>
        </mxCell>
        <mxCell id="o72glYHgqPc7JBYB_R62-43" value="" style="ellipse;whiteSpace=wrap;html=1;align=center;aspect=fixed;fillColor=none;strokeColor=none;resizable=0;perimeter=centerPerimeter;rotatable=0;allowArrows=0;points=[];outlineConnect=1;" vertex="1" parent="1">
          <mxGeometry x="-125" y="340" width="10" height="10" as="geometry" />
        </mxCell>
        <mxCell id="o72glYHgqPc7JBYB_R62-46" value="" style="rounded=0;orthogonalLoop=1;jettySize=auto;html=1;endArrow=halfCircle;endFill=0;endSize=6;strokeWidth=1;sketch=0;exitX=1;exitY=0.5;exitDx=0;exitDy=0;" edge="1" parent="1" source="5seyrMzP3nXMBWjV6_gZ-26">
          <mxGeometry relative="1" as="geometry">
            <mxPoint x="20" y="125" as="sourcePoint" />
            <mxPoint x="165" y="192" as="targetPoint" />
          </mxGeometry>
        </mxCell>
        <mxCell id="o72glYHgqPc7JBYB_R62-47" value="" style="rounded=0;orthogonalLoop=1;jettySize=auto;html=1;endArrow=oval;endFill=0;sketch=0;sourcePerimeterSpacing=0;targetPerimeterSpacing=0;endSize=10;exitX=0;exitY=0.5;exitDx=0;exitDy=0;entryX=0.8;entryY=1;entryDx=0;entryDy=0;entryPerimeter=0;" edge="1" parent="1" source="o72glYHgqPc7JBYB_R62-37">
          <mxGeometry relative="1" as="geometry">
            <mxPoint x="-20" y="125" as="sourcePoint" />
            <mxPoint x="165" y="192" as="targetPoint" />
          </mxGeometry>
        </mxCell>
        <mxCell id="o72glYHgqPc7JBYB_R62-50" value="&lt;font style=&quot;font-size: 11px;&quot;&gt;PostgreDBIF&lt;/font&gt;" style="text;html=1;align=center;verticalAlign=middle;resizable=0;points=[];autosize=1;strokeColor=none;fillColor=none;" vertex="1" parent="1">
          <mxGeometry x="125" y="190" width="90" height="30" as="geometry" />
        </mxCell>
        <mxCell id="o72glYHgqPc7JBYB_R62-51" value="" style="rounded=0;orthogonalLoop=1;jettySize=auto;html=1;endArrow=halfCircle;endFill=0;endSize=6;strokeWidth=1;sketch=0;exitX=0.5;exitY=1;exitDx=0;exitDy=0;" edge="1" parent="1" source="5seyrMzP3nXMBWjV6_gZ-26">
          <mxGeometry relative="1" as="geometry">
            <mxPoint x="20" y="245" as="sourcePoint" />
            <mxPoint x="35" y="353" as="targetPoint" />
          </mxGeometry>
        </mxCell>
        <mxCell id="o72glYHgqPc7JBYB_R62-54" value="" style="rounded=0;orthogonalLoop=1;jettySize=auto;html=1;endArrow=oval;endFill=0;sketch=0;sourcePerimeterSpacing=0;targetPerimeterSpacing=0;endSize=10;exitX=0.5;exitY=0;exitDx=0;exitDy=0;" edge="1" parent="1" source="KeYxlR6JVcF8Aqz_7-zb-5">
          <mxGeometry relative="1" as="geometry">
            <mxPoint x="30" y="400" as="sourcePoint" />
            <mxPoint x="35" y="353" as="targetPoint" />
          </mxGeometry>
        </mxCell>
        <mxCell id="o72glYHgqPc7JBYB_R62-55" value="&lt;span style=&quot;font-size: 11px;&quot;&gt;MeteoRequest&lt;br&gt;&lt;/span&gt;" style="text;html=1;align=center;verticalAlign=middle;resizable=0;points=[];autosize=1;strokeColor=none;fillColor=none;" vertex="1" parent="1">
          <mxGeometry x="-65" y="340" width="100" height="30" as="geometry" />
        </mxCell>
        <mxCell id="o72glYHgqPc7JBYB_R62-58" value="" style="rounded=0;orthogonalLoop=1;jettySize=auto;html=1;endArrow=halfCircle;endFill=0;endSize=6;strokeWidth=1;sketch=0;exitX=1;exitY=0.5;exitDx=0;exitDy=0;" edge="1" parent="1" source="5seyrMzP3nXMBWjV6_gZ-24">
          <mxGeometry relative="1" as="geometry">
            <mxPoint x="-60" y="125" as="sourcePoint" />
            <mxPoint x="170" y="70" as="targetPoint" />
          </mxGeometry>
        </mxCell>
        <mxCell id="o72glYHgqPc7JBYB_R62-59" value="" style="rounded=0;orthogonalLoop=1;jettySize=auto;html=1;endArrow=oval;endFill=0;sketch=0;sourcePerimeterSpacing=0;targetPerimeterSpacing=0;endSize=10;exitX=0;exitY=0.5;exitDx=0;exitDy=0;entryX=0.884;entryY=0.289;entryDx=0;entryDy=0;entryPerimeter=0;" edge="1" target="o72glYHgqPc7JBYB_R62-35" parent="1" source="o72glYHgqPc7JBYB_R62-37">
          <mxGeometry relative="1" as="geometry">
            <mxPoint x="-100" y="125" as="sourcePoint" />
          </mxGeometry>
        </mxCell>
        <mxCell id="o72glYHgqPc7JBYB_R62-60" value="" style="ellipse;whiteSpace=wrap;html=1;align=center;aspect=fixed;fillColor=none;strokeColor=none;resizable=0;perimeter=centerPerimeter;rotatable=0;allowArrows=0;points=[];outlineConnect=1;" vertex="1" parent="1">
          <mxGeometry x="-85" y="120" width="10" height="10" as="geometry" />
        </mxCell>
        <mxCell id="o72glYHgqPc7JBYB_R62-61" value="&lt;font style=&quot;font-size: 11px;&quot;&gt;PostgreDBIF&lt;/font&gt;" style="text;html=1;align=center;verticalAlign=middle;resizable=0;points=[];autosize=1;strokeColor=none;fillColor=none;" vertex="1" parent="1">
          <mxGeometry x="125" y="40" width="90" height="30" as="geometry" />
        </mxCell>
        <mxCell id="o72glYHgqPc7JBYB_R62-64" value="" style="endArrow=open;endSize=12;dashed=1;html=1;rounded=0;" edge="1" parent="1">
          <mxGeometry width="160" relative="1" as="geometry">
            <mxPoint x="-180" y="350" as="sourcePoint" />
            <mxPoint x="-230" y="350" as="targetPoint" />
          </mxGeometry>
        </mxCell>
        <mxCell id="o72glYHgqPc7JBYB_R62-67" value="Provided by Spring Security" style="shape=note;size=20;whiteSpace=wrap;html=1;" vertex="1" parent="1">
          <mxGeometry x="-330" y="321.5" width="100" height="67" as="geometry" />
        </mxCell>
        <mxCell id="o72glYHgqPc7JBYB_R62-69" value="Provided by Visual Crossing" style="shape=note;size=20;whiteSpace=wrap;html=1;" vertex="1" parent="1">
          <mxGeometry x="100" y="321.5" width="100" height="67" as="geometry" />
        </mxCell>
        <mxCell id="o72glYHgqPc7JBYB_R62-70" value="" style="endArrow=open;endSize=12;dashed=1;html=1;rounded=0;exitX=1.097;exitY=0.544;exitDx=0;exitDy=0;exitPerimeter=0;entryX=0;entryY=0.5;entryDx=0;entryDy=0;entryPerimeter=0;" edge="1" parent="1" source="o72glYHgqPc7JBYB_R62-55" target="o72glYHgqPc7JBYB_R62-69">
          <mxGeometry width="160" relative="1" as="geometry">
            <mxPoint x="-70" y="390" as="sourcePoint" />
            <mxPoint x="90" y="390" as="targetPoint" />
          </mxGeometry>
        </mxCell>
      </root>
    </mxGraphModel>
  </diagram>
</mxfile>
